<!--?xml version="1.0" standalone="no"?-->
<svg id="sw-js-blob-svg" viewBox="0 0 100 100" xmlns="http://www.w3.org/2000/svg" version="1.1">
  <defs>
    <linearGradient id="sw-gradient" x1="0" x2="1" y1="1" y2="0">
      <stop id="stop1" stop-color="currentColor" offset="0%"></stop>
      <stop id="stop2" stop-color="currentColor" offset="100%"></stop>
    </linearGradient>
  </defs>
  <path fill="currentColor"
    d="M21.3,-28.2C28.5,-24,36.1,-19.1,39.8,-11.9C43.5,-4.8,43.3,4.6,39.9,12.3C36.6,20,29.9,26,22.7,30.1C15.5,34.1,7.8,36.2,0.4,35.7C-7,35.2,-14,32,-19.1,27.3C-24.2,22.6,-27.4,16.3,-29.5,9.7C-31.5,3,-32.3,-3.9,-31.7,-11.7C-31,-19.5,-28.9,-28.1,-23.4,-32.9C-17.8,-37.8,-8.9,-38.7,-1,-37.4C7,-36.1,14,-32.5,21.3,-28.2Z"
    width="100%" height="100%" transform="translate(50 50)" stroke-width="0"
    style="transition: all 0.3s ease 0s;" stroke="currentColor"></path>
</svg>